<?xml version="1.0" encoding="UTF-8"?>
<svg version="1.1" xmlns="http://www.w3.org/2000/svg" width="142" height="138">
<path d="M0 0 C8.68898209 6.86817845 15.9927434 16.78788238 17.53515625 28.00390625 C18.3877096 40.7642539 17.1764157 52.14028549 9.4921875 62.83984375 C1.29974548 71.8989513 -9.56386194 78.37034745 -21.8125 79.2421875 C-34.55945721 79.49685857 -44.22906648 76.74264915 -54.46484375 69.00390625 C-55.20734375 68.48957031 -55.94984375 67.97523437 -56.71484375 67.4453125 C-57.58109375 66.73181641 -57.58109375 66.73181641 -58.46484375 66.00390625 C-58.46484375 65.34390625 -58.46484375 64.68390625 -58.46484375 64.00390625 C-59.04234375 63.77703125 -59.61984375 63.55015625 -60.21484375 63.31640625 C-63.11713775 61.62340142 -64.6529307 59.82243766 -66.46484375 57.00390625 C-66.21484375 54.69140625 -66.21484375 54.69140625 -65.46484375 53.00390625 C-63.81484375 53.33390625 -62.16484375 53.66390625 -60.46484375 54.00390625 C-60.13484375 53.01390625 -59.80484375 52.02390625 -59.46484375 51.00390625 C-55.46484375 51.00390625 -55.46484375 51.00390625 -53.71484375 52.50390625 C-53.30234375 52.99890625 -52.88984375 53.49390625 -52.46484375 54.00390625 C-50.97984375 53.50890625 -50.97984375 53.50890625 -49.46484375 53.00390625 C-49.46484375 53.66390625 -49.46484375 54.32390625 -49.46484375 55.00390625 C-48.80484375 55.00390625 -48.14484375 55.00390625 -47.46484375 55.00390625 C-47.46484375 55.66390625 -47.46484375 56.32390625 -47.46484375 57.00390625 C-45.48484375 56.50890625 -45.48484375 56.50890625 -43.46484375 56.00390625 C-38.46484375 61.62890625 -38.46484375 61.62890625 -38.46484375 65.00390625 C-36.15484375 64.67390625 -33.84484375 64.34390625 -31.46484375 64.00390625 C-30.96984375 62.51890625 -30.96984375 62.51890625 -30.46484375 61.00390625 C-31.04234375 60.77703125 -31.61984375 60.55015625 -32.21484375 60.31640625 C-35.15556273 58.60098685 -36.63760061 56.87528832 -38.46484375 54.00390625 C-38.83984375 50.81640625 -38.83984375 50.81640625 -38.46484375 48.00390625 C-37.80484375 47.34390625 -37.14484375 46.68390625 -36.46484375 46.00390625 C-37.39296875 45.13765625 -37.39296875 45.13765625 -38.33984375 44.25390625 C-41.40714396 41.00617661 -42.35427477 39.17593748 -42.77734375 34.69140625 C-42.14473969 27.2266784 -38.45817322 22.37204708 -34.18359375 16.44921875 C-32.04302323 13.40377069 -30.24114861 10.27230719 -28.46484375 7.00390625 C-27.80484375 7.00390625 -27.14484375 7.00390625 -26.46484375 7.00390625 C-26.18511719 7.60976563 -25.90539062 8.215625 -25.6171875 8.83984375 C-22.85913398 14.6042643 -19.71363865 19.73434272 -15.91796875 24.875 C-13.13264675 28.95564648 -12.83072229 33.20395911 -13.46484375 38.00390625 C-14.7791623 41.61113922 -16.69281597 44.32270527 -19.58984375 46.87890625 C-23.78814391 48.52171935 -27.98988907 48.75191851 -32.46484375 49.00390625 C-32.13484375 49.99390625 -31.80484375 50.98390625 -31.46484375 52.00390625 C-29.81806024 52.7182775 -28.14697291 53.3772774 -26.46484375 54.00390625 C-24.72496422 55.10124668 -23.01630495 56.24942695 -21.33984375 57.44140625 C-20.49164063 58.03824219 -19.6434375 58.63507813 -18.76953125 59.25 C-16.82175059 60.73229409 -15.13321936 62.22103427 -13.46484375 64.00390625 C-12.53671875 63.69453125 -11.60859375 63.38515625 -10.65234375 63.06640625 C-8.58984375 62.37890625 -6.52734375 61.69140625 -4.46484375 61.00390625 C-3.96984375 59.51890625 -3.96984375 59.51890625 -3.46484375 58.00390625 C-2.80484375 58.00390625 -2.14484375 58.00390625 -1.46484375 58.00390625 C3.98553755 47.22534951 7.63954117 37.92136052 4.28515625 25.81640625 C1.44133225 17.32424979 -3.96893908 10.94213548 -11.890625 6.70703125 C-21.97356098 2.37905251 -31.16956654 2.22864806 -41.58984375 5.71484375 C-51.88221499 10.23850692 -59.21467128 18.78660423 -63.46484375 29.00390625 C-65.48219331 34.8971085 -66.77766288 40.81927843 -67.46484375 47.00390625 C-69.90227528 44.56647472 -70.02513464 43.38297517 -70.46484375 40.00390625 C-70.38947086 25.62652832 -66.97798045 15.16696827 -57.20703125 4.55078125 C-41.53504546 -10.6676744 -17.94200215 -12.36578278 0 0 Z M-37.46484375 37.00390625 C-36.46484375 39.00390625 -36.46484375 39.00390625 -36.46484375 39.00390625 Z M-36.46484375 39.00390625 C-36.13484375 39.99390625 -35.80484375 40.98390625 -35.46484375 42.00390625 C-35.46484375 41.01390625 -35.46484375 40.02390625 -35.46484375 39.00390625 C-35.79484375 39.00390625 -36.12484375 39.00390625 -36.46484375 39.00390625 Z " fill="#AA0E1F" transform="translate(100.46484375,32.99609375)"/>
<path d="M0 0 C0.66 0 1.32 0 2 0 C2.27972656 0.60585938 2.55945313 1.21171875 2.84765625 1.8359375 C5.60570977 7.60035805 8.7512051 12.73043647 12.546875 17.87109375 C15.332197 21.95174023 15.63412146 26.20005286 15 31 C13.68568145 34.60723297 11.77202778 37.31879902 8.875 39.875 C4.67669984 41.5178131 0.47495468 41.74801226 -4 42 C-3.67 42.99 -3.34 43.98 -3 45 C-1.35321649 45.71437125 0.31787084 46.37337115 2 47 C3.73987953 48.09734043 5.4485388 49.2455207 7.125 50.4375 C7.97320312 51.03433594 8.82140625 51.63117188 9.6953125 52.24609375 C12 54 12 54 13.60546875 55.7421875 C14.06566406 56.15726563 14.52585938 56.57234375 15 57 C18.14921909 56.76716851 18.14921909 56.76716851 21 56 C19 59 19 59 16.6875 59.5 C12.96852267 58.80809724 11.63754876 56.63754876 9 54 C5.81849108 53.12010026 5.81849108 53.12010026 3 53 C2.79375 53.7425 2.5875 54.485 2.375 55.25 C-0.00562251 60.01124501 -3.84557822 61.56953764 -8.6875 63.375 C-12 64 -12 64 -15 62 C-14.01 62 -13.02 62 -12 62 C-12 61.34 -12 60.68 -12 60 C-15.465 60.495 -15.465 60.495 -19 61 C-19.33 62.32 -19.66 63.64 -20 65 C-18.515 65.495 -18.515 65.495 -17 66 C-17.99 66.495 -17.99 66.495 -19 67 C-20.83893824 65.71632558 -22.67102625 64.42283239 -24.5 63.125 C-25.5209375 62.40570313 -26.541875 61.68640625 -27.59375 60.9453125 C-28.3878125 60.30335937 -29.181875 59.66140625 -30 59 C-30 58.34 -30 57.68 -30 57 C-30.5775 56.773125 -31.155 56.54625 -31.75 56.3125 C-34.652294 54.61949517 -36.18808695 52.81853141 -38 50 C-37.75 47.6875 -37.75 47.6875 -37 46 C-35.35 46.33 -33.7 46.66 -32 47 C-31.67 46.01 -31.34 45.02 -31 44 C-27 44 -27 44 -25.25 45.5 C-24.8375 45.995 -24.425 46.49 -24 47 C-22.515 46.505 -22.515 46.505 -21 46 C-21 46.66 -21 47.32 -21 48 C-20.34 48 -19.68 48 -19 48 C-19 48.66 -19 49.32 -19 50 C-17.02 49.505 -17.02 49.505 -15 49 C-10 54.625 -10 54.625 -10 58 C-6.535 57.505 -6.535 57.505 -3 57 C-2.67 56.01 -2.34 55.02 -2 54 C-2.5775 53.773125 -3.155 53.54625 -3.75 53.3125 C-6.69071898 51.5970806 -8.17275686 49.87138207 -10 47 C-10.375 43.8125 -10.375 43.8125 -10 41 C-9.34 40.34 -8.68 39.68 -8 39 C-8.61875 38.4225 -9.2375 37.845 -9.875 37.25 C-12.94230021 34.00227036 -13.88943102 32.17203123 -14.3125 27.6875 C-13.67989594 20.22277215 -9.99332947 15.36814083 -5.71875 9.4453125 C-3.57817948 6.39986444 -1.77630486 3.26840094 0 0 Z M-9 30 C-8 32 -8 32 -8 32 Z M-8 32 C-7.67 32.99 -7.34 33.98 -7 35 C-7 34.01 -7 33.02 -7 32 C-7.33 32 -7.66 32 -8 32 Z " fill="#9E1123" transform="translate(72,40)"/>
<path d="M0 0 C8.66719045 6.85095331 16.03433128 16.79888349 17.53515625 28.00390625 C17.6016848 30.27386044 17.62059376 32.5455932 17.59765625 34.81640625 C17.58863281 35.97785156 17.57960938 37.13929687 17.5703125 38.3359375 C17.55871094 39.21636719 17.54710938 40.09679687 17.53515625 41.00390625 C17.20515625 41.00390625 16.87515625 41.00390625 16.53515625 41.00390625 C16.41398437 40.32585937 16.2928125 39.6478125 16.16796875 38.94921875 C15.14790072 33.28391783 14.07460485 27.63587069 12.90234375 22 C12.53515625 20.00390625 12.53515625 20.00390625 12.53515625 18.00390625 C11.54515625 18.00390625 10.55515625 18.00390625 9.53515625 18.00390625 C9.53515625 17.34390625 9.53515625 16.68390625 9.53515625 16.00390625 C6.31110647 17.67345444 6.31110647 17.67345444 5.84765625 20.62890625 C5.74453125 21.41265625 5.64140625 22.19640625 5.53515625 23.00390625 C6.19515625 23.00390625 6.85515625 23.00390625 7.53515625 23.00390625 C8.03015625 25.97390625 8.03015625 25.97390625 8.53515625 29.00390625 C7.54515625 29.00390625 6.55515625 29.00390625 5.53515625 29.00390625 C5.13296875 27.84375 5.13296875 27.84375 4.72265625 26.66015625 C1.38065026 17.77745612 -2.82240223 11.44410451 -11.15234375 6.62890625 C-21.09267858 2.26295527 -31.42960239 2.28085223 -41.57421875 5.71875 C-51.88039519 10.19163058 -59.22225519 18.80483573 -63.46484375 29.00390625 C-65.48219331 34.8971085 -66.77766288 40.81927843 -67.46484375 47.00390625 C-69.90227528 44.56647472 -70.02513464 43.38297517 -70.46484375 40.00390625 C-70.38947086 25.62652832 -66.97798045 15.16696827 -57.20703125 4.55078125 C-41.53504546 -10.6676744 -17.94200215 -12.36578278 0 0 Z " fill="#A10E20" transform="translate(100.46484375,32.99609375)"/>
<path d="M0 0 C0.66 0 1.32 0 2 0 C2.32613281 0.67546875 2.65226562 1.3509375 2.98828125 2.046875 C3.64376953 3.38492188 3.64376953 3.38492188 4.3125 4.75 C4.74175781 5.63171875 5.17101562 6.5134375 5.61328125 7.421875 C6.90452214 9.98854453 6.90452214 9.98854453 8.55859375 12.02734375 C11.88321086 16.57729399 13.05985745 22.20427664 12.875 27.75 C11.96524672 31.12908362 10.70944111 33.95273542 9 37 C8.34 37 7.68 37 7 37 C7 37.66 7 38.32 7 39 C5.35 38.67 3.7 38.34 2 38 C2 37.01 2 36.02 2 35 C0.8553125 34.814375 0.8553125 34.814375 -0.3125 34.625 C-3 34 -3 34 -6 32 C-6 31.34 -6 30.68 -6 30 C-5.34 30 -4.68 30 -4 30 C-4 29.34 -4 28.68 -4 28 C-4.99 28.33 -5.98 28.66 -7 29 C-8.62950412 24.87831311 -9.26264601 22.29299643 -8 18 C-7.34 18 -6.68 18 -6 18 C-6 17.34 -6 16.68 -6 16 C-5.34 15.67 -4.68 15.34 -4 15 C-4.0825 13.824375 -4.165 12.64875 -4.25 11.4375 C-4.28424585 6.63451989 -2.62933968 3.94400953 0 0 Z " fill="#D80C20" transform="translate(72,40)"/>
<path d="M0 0 C5.48758368 0.38285468 7.21456458 2.21456458 11 6 C13.58736705 6.75085106 13.58736705 6.75085106 16 6 C16.495 5.34 16.99 4.68 17.5 4 C17.995 3.34 18.49 2.68 19 2 C21.6875 1.75 21.6875 1.75 24 2 C24 2.99 24 3.98 24 5 C23.34 5.33 22.68 5.66 22 6 C22.2475 7.3303125 22.2475 7.3303125 22.5 8.6875 C22 12 22 12 20.5 13.4765625 C15.86160402 16.57486606 11.57403101 17.85433717 6 18 C4.67355469 18.07541016 4.67355469 18.07541016 3.3203125 18.15234375 C-5.35721993 18.44006034 -15.62009891 17.91993406 -23 13 C-22.67 11.35 -22.34 9.7 -22 8 C-19.69 8 -17.38 8 -15 8 C-15 8.99 -15 9.98 -15 11 C-6.46832451 8.43860321 -6.46832451 8.43860321 -0.6875 2.3125 C-0.460625 1.549375 -0.23375 0.78625 0 0 Z " fill="#A90A1B" transform="translate(75,92)"/>
<path d="M0 0 C1.35439668 2.70879335 1.06501451 5.00933268 1 8 C0.01 8 -0.98 8 -2 8 C-2 8.66 -2 9.32 -2 10 C-2.99 10.495 -2.99 10.495 -4 11 C-3.41196203 14.02419525 -2.77321882 17.01758453 -2 20 C-1.34 20 -0.68 20 0 20 C0 20.66 0 21.32 0 22 C-0.66 22 -1.32 22 -2 22 C-2 22.66 -2 23.32 -2 24 C0.08770553 25.11841368 1.85408801 25.9708176 4.1875 26.4375 C4.785625 26.623125 5.38375 26.80875 6 27 C6.33 27.99 6.66 28.98 7 30 C9.01508358 30.73323796 9.01508358 30.73323796 11 31 C11 30.34 11 29.68 11 29 C11.66 28.67 12.32 28.34 13 28 C16.73766495 21.18984776 15.88863924 15.26922298 14 8 C17.775542 11.53195865 18.8747644 13.49717274 19.3125 18.75 C19.24225359 23.51797502 17.7912518 26.15259886 15 30 C10.70308863 33.79139239 5.49114255 33.69079003 0 34 C0 34.99 0 35.98 0 37 C-1.65 36.01 -3.3 35.02 -5 34 C-5 35.32 -5 36.64 -5 38 C-4.01 38 -3.02 38 -2 38 C-2.66 39.32 -3.32 40.64 -4 42 C-6.30163882 38.54754176 -6.34490322 37.05261287 -6 33 C-5.34 32.34 -4.68 31.68 -4 31 C-4.61875 30.4225 -5.2375 29.845 -5.875 29.25 C-8.94230021 26.00227036 -9.88943102 24.17203123 -10.3125 19.6875 C-9.61110285 11.4110136 -5.13925791 6.20934997 0 0 Z M-5 22 C-4 24 -4 24 -4 24 Z M-4 24 C-3.67 24.99 -3.34 25.98 -3 27 C-3 26.01 -3 25.02 -3 24 C-3.33 24 -3.66 24 -4 24 Z " fill="#C91A2C" transform="translate(68,48)"/>
<path d="M0 0 C0.33 0 0.66 0 1 0 C1.33238839 7.68186493 0.46909391 15.06548409 -0.5625 22.65625 C-1.04324511 25.76847455 -1.04324511 25.76847455 -1 28 C0.65 27.67 2.3 27.34 4 27 C1.50173749 34.94901708 -6.17715819 40.45572953 -13.33984375 44.234375 C-24.0014171 49.13053847 -35.75541214 49.75835019 -46.9375 46 C-48.63389657 45.35630802 -50.32543257 44.69851602 -52 44 C-52 43.67 -52 43.34 -52 43 C-51.25234375 43.0721875 -50.5046875 43.144375 -49.734375 43.21875 C-48.74953125 43.3115625 -47.7646875 43.404375 -46.75 43.5 C-45.28820313 43.63921875 -45.28820313 43.63921875 -43.796875 43.78125 C-41.53697847 43.95800168 -39.26679807 44 -37 44 C-36.67 44.66 -36.34 45.32 -36 46 C-33.12198966 45.77072454 -30.24951162 45.51739643 -27.375 45.25 C-26.56675781 45.188125 -25.75851563 45.12625 -24.92578125 45.0625 C-19.44316789 44.52761089 -16.38208399 43.3169005 -12 40 C-11.34 40 -10.68 40 -10 40 C-10.226875 39.071875 -10.45375 38.14375 -10.6875 37.1875 C-11 34 -11 34 -9.5625 32.125 C-9.046875 31.75375 -8.53125 31.3825 -8 31 C-8.99 30.67 -9.98 30.34 -11 30 C-10.505 28.515 -10.505 28.515 -10 27 C-9.34 27 -8.68 27 -8 27 C-7.566875 26.12988281 -7.566875 26.12988281 -7.125 25.2421875 C-6.43343259 23.86385523 -5.72805371 22.49222528 -5 21.1328125 C-1.62560048 14.35765096 -0.80725365 7.46709625 0 0 Z " fill="#9B1223" transform="translate(107,64)"/>
<path d="M0 0 C7.18447285 -0.26265815 13.78094066 -0.26392506 19.7578125 4.1796875 C21.3203125 6.9296875 21.3203125 6.9296875 21.7578125 9.1796875 C19.73735808 8.57785001 17.73670211 7.90662654 15.7578125 7.1796875 C15.4278125 6.5196875 15.0978125 5.8596875 14.7578125 5.1796875 C14.4278125 6.1696875 14.0978125 7.1596875 13.7578125 8.1796875 C10.86172657 8.23381995 7.96666055 8.27342391 5.0703125 8.3046875 C4.25369141 8.32144531 3.43707031 8.33820312 2.59570312 8.35546875 C-1.81311679 8.3911677 -5.22950326 8.25549564 -9.2421875 6.1796875 C-9.9021875 7.4996875 -10.5621875 8.8196875 -11.2421875 10.1796875 C-13.7171875 9.1896875 -13.7171875 9.1896875 -16.2421875 8.1796875 C-11.5422085 1.58594406 -11.5422085 1.58594406 -7.2421875 0.2421875 C-4.82218081 0.14538723 -2.42164921 0.13421188 0 0 Z " fill="#A1091D" transform="translate(70.2421875,26.8203125)"/>
<path d="M0 0 C0.33 0.99 0.66 1.98 1 3 C0.01 3.33 -0.98 3.66 -2 4 C-2.33 5.98 -2.66 7.96 -3 10 C-1.35 10 0.3 10 2 10 C1.45730469 10.88300781 0.91460937 11.76601563 0.35546875 12.67578125 C-5.3372338 22.14329564 -8.77080185 30.93721667 -10 42 C-12.43743153 39.56256847 -12.56029089 38.37906892 -13 35 C-12.92800608 21.26715915 -9.91478122 9.91478122 0 0 Z " fill="#9D1828" transform="translate(43,38)"/>
<path d="M0 0 C2.86475386 2.85567381 5.49058149 5.82907289 8 9 C7.505 10.485 7.505 10.485 7 12 C4.59686711 11.03874684 3.26757334 10.45644863 1.9375 8.1875 C1.25629844 6.5980297 0.61561993 4.99100232 0 3.375 C-2.80071711 0.04914843 -5.46443819 0.16133718 -9.63671875 -0.47265625 C-12.73384085 -1.16374961 -13.94464525 -2.65102315 -16 -5 C-21.5155684 -7.53609737 -26.93945234 -7.22955572 -32.875 -7.125 C-33.84953125 -7.11597656 -34.8240625 -7.10695313 -35.828125 -7.09765625 C-38.21900728 -7.07421623 -40.60937261 -7.04140442 -43 -7 C-30.3378514 -15.4414324 -10.71074795 -8.58495065 0 0 Z " fill="#8C182C" transform="translate(103,35)"/>
<path d="M0 0 C3.775542 3.53195865 4.8747644 5.49717274 5.3125 10.75 C5.24225359 15.51797502 3.7912518 18.15259886 1 22 C-3.29691137 25.79139239 -8.50885745 25.69079003 -14 26 C-14 26.99 -14 27.98 -14 29 C-15.65 28.01 -17.3 27.02 -19 26 C-19 27.32 -19 28.64 -19 30 C-18.01 30 -17.02 30 -16 30 C-16.66 31.32 -17.32 32.64 -18 34 C-20.30163882 30.54754176 -20.34490322 29.05261287 -20 25 C-19.34 24.34 -18.68 23.68 -18 23 C-18.33 22.34 -18.66 21.68 -19 21 C-16.625 20.375 -16.625 20.375 -14 20 C-12 22 -12 22 -12 23 C-9.03 23 -6.06 23 -3 23 C-3 22.34 -3 21.68 -3 21 C-2.34 20.67 -1.68 20.34 -1 20 C2.73766495 13.18984776 1.88863924 7.26922298 0 0 Z " fill="#A22635" transform="translate(82,56)"/>
<path d="M0 0 C5.65712314 0.42484324 10.6286412 1.09018354 16 3 C18.32694964 3.37531446 20.65976685 3.71917202 23 4 C23.12375 4.928125 23.12375 4.928125 23.25 5.875 C23.81258459 8.18437567 23.81258459 8.18437567 26.0625 9.25 C27.0215625 9.62125 27.0215625 9.62125 28 10 C28 10.66 28 11.32 28 12 C28.515625 13.134375 29.03125 14.26875 29.5625 15.4375 C31 19 31 19 30 22 C29.731875 21.50371094 29.46375 21.00742187 29.1875 20.49609375 C23.91442987 11.35494915 17.1400909 5.9910803 7 3 C4.638993 2.5033889 2.40894457 2.20947344 0 2 C0 1.34 0 0.68 0 0 Z " fill="#881628" transform="translate(74,34)"/>
<path d="M0 0 C0 0.66 0 1.32 0 2 C-0.99 2.495 -0.99 2.495 -2 3 C-2.268125 3.78375 -2.53625 4.5675 -2.8125 5.375 C-4.31128503 8.68810374 -5.68967353 9.58128866 -9 11 C-11.3125 10.6875 -11.3125 10.6875 -13 10 C-12.39816251 7.97954558 -11.72693904 5.97888961 -11 4 C-10.34 3.67 -9.68 3.34 -9 3 C-8.67 2.01 -8.34 1.02 -8 0 C-5.13822943 -1.43088528 -3.06624227 -0.59991697 0 0 Z " fill="#A8131F" transform="translate(52,38)"/>
<path d="M0 0 C0.66 0 1.32 0 2 0 C2 0.66 2 1.32 2 2 C2.99 2 3.98 2 5 2 C6.52150158 5.04300316 6.23899393 7.654085 6 11 C5.01 11.66 4.02 12.32 3 13 C2.01 12.67 1.02 12.34 0 12 C0 10.35 0 8.7 0 7 C-0.66 7 -1.32 7 -2 7 C-2.125 4.625 -2.125 4.625 -2 2 C-1.34 1.34 -0.68 0.68 0 0 Z " fill="#AB0E1C" transform="translate(108,49)"/>
<path d="M0 0 C0.33 0 0.66 0 1 0 C1.38064163 8.79705092 0.20731692 17.31163005 -1 26 C-3.07553648 26.5534764 -4.84365964 27 -7 27 C-7.33 27.99 -7.66 28.98 -8 30 C-8.99 30 -9.98 30 -11 30 C-10.505 28.515 -10.505 28.515 -10 27 C-9.34 27 -8.68 27 -8 27 C-7.566875 26.12988281 -7.566875 26.12988281 -7.125 25.2421875 C-6.43343259 23.86385523 -5.72805371 22.49222528 -5 21.1328125 C-1.62560048 14.35765096 -0.80725365 7.46709625 0 0 Z " fill="#8E1D2A" transform="translate(107,64)"/>
<path d="M0 0 C1.32 0 2.64 0 4 0 C4 0.66 4 1.32 4 2 C3.01 2 2.02 2 1 2 C1 2.66 1 3.32 1 4 C1.66 4 2.32 4 3 4 C3 4.66 3 5.32 3 6 C1.35 5.67 -0.3 5.34 -2 5 C-1.01 7.64 -0.02 10.28 1 13 C-2.79235994 11.51014431 -4.80565887 9.41341953 -7 6 C-6.75 3.6875 -6.75 3.6875 -6 2 C-4.35 2.33 -2.7 2.66 -1 3 C-0.67 2.01 -0.34 1.02 0 0 Z " fill="#8F182A" transform="translate(41,84)"/>
<path d="M0 0 C2.31 0.66 4.62 1.32 7 2 C6.67 2.99 6.34 3.98 6 5 C6.99 5 7.98 5 9 5 C9 5.66 9 6.32 9 7 C9.66 7 10.32 7 11 7 C11.33 7.99 11.66 8.98 12 10 C10.375 10.75 10.375 10.75 8 11 C3.72629466 8.94862144 2.2758373 7.75228353 0.625 3.25 C0.41875 2.1775 0.2125 1.105 0 0 Z " fill="#A8091B" transform="translate(39,89)"/>
<path d="M0 0 C1.98 0 3.96 0 6 0 C4.97877763 5.40647135 3.86835937 10.21940105 1 15 C0.01 15.495 0.01 15.495 -1 16 C-0.89171875 14.95199219 -0.89171875 14.95199219 -0.78125 13.8828125 C-0.6884375 12.97273438 -0.595625 12.06265625 -0.5 11.125 C-0.4071875 10.22007813 -0.314375 9.31515625 -0.21875 8.3828125 C0.03047295 6.06686789 0.03047295 6.06686789 0 4 C-0.66 4 -1.32 4 -2 4 C-1.34 2.68 -0.68 1.36 0 0 Z " fill="#A71322" transform="translate(112,75)"/>
<path d="M0 0 C0 3.18971318 -0.57033424 4.49545739 -1.9375 7.3125 C-3.58782944 10.88141031 -4.59529941 14.05416926 -5 18 C-4.34 18 -3.68 18 -3 18 C-3 18.66 -3 19.32 -3 20 C-2.34 20 -1.68 20 -1 20 C-0.67 20.99 -0.34 21.98 0 23 C-1.32 23.33 -2.64 23.66 -4 24 C-6.99933999 19.87590751 -7.52354281 17.06091385 -7 12 C-5.36929723 7.27096198 -3.29622198 3.75087329 0 0 Z " fill="#B4253E" transform="translate(65,52)"/>
<path d="M0 0 C3.80726834 3.56163813 4.90159494 5.49932279 5.25 10.8125 C5.22040465 14.81527043 4.0714985 17.54750249 2 21 C1.01 20.67 0.02 20.34 -1 20 C-0.76023437 19.47792969 -0.52046875 18.95585938 -0.2734375 18.41796875 C2.40495304 11.76857311 1.77943386 6.8489001 0 0 Z " fill="#C11A35" transform="translate(82,56)"/>
<path d="M0 0 C4.52817631 3.66566653 6.13819469 9.4345096 7 15 C7.06652855 17.26995419 7.08543751 19.54168695 7.0625 21.8125 C7.05347656 22.97394531 7.04445313 24.13539062 7.03515625 25.33203125 C7.02355469 26.21246094 7.01195313 27.09289062 7 28 C6.67 28 6.34 28 6 28 C5.89042969 27.34515625 5.78085938 26.6903125 5.66796875 26.015625 C4.59527179 19.84107662 3.26116795 13.79164051 1.68359375 7.7265625 C1.04056477 5.16179547 0.49575211 2.59679679 0 0 Z " fill="#941A28" transform="translate(111,46)"/>
<path d="M0 0 C3.40147591 1.20697532 5.14245264 2.93504686 7 6 C7 6.99 7 7.98 7 9 C10.465 8.505 10.465 8.505 14 8 C14.33 7.01 14.66 6.02 15 5 C14.360625 4.71125 13.72125 4.4225 13.0625 4.125 C11 3 11 3 10 1 C11.66611905 0.957279 13.33382885 0.95936168 15 1 C16 2 16 2 16.125 5.5 C16 9 16 9 15 10 C13.48071962 10.07179964 11.95832518 10.08392007 10.4375 10.0625 C9.61121094 10.05347656 8.78492188 10.04445313 7.93359375 10.03515625 C7.29550781 10.02355469 6.65742187 10.01195313 6 10 C6 9.34 6 8.68 6 8 C5.34 7.67 4.68 7.34 4 7 C3.71125 6.175 3.4225 5.35 3.125 4.5 C2.27117929 1.81740446 2.27117929 1.81740446 -0.125 1.1875 C-0.74375 1.125625 -1.3625 1.06375 -2 1 C-1.34 0.67 -0.68 0.34 0 0 Z " fill="#881827" transform="translate(55,89)"/>
<path d="M0 0 C0.66 1.32 1.32 2.64 2 4 C1.01 4.495 1.01 4.495 0 5 C0 4.34 0 3.68 0 3 C-3.22404978 4.66954819 -3.22404978 4.66954819 -3.6875 7.625 C-3.790625 8.40875 -3.89375 9.1925 -4 10 C-3.34 10 -2.68 10 -2 10 C-1.67 11.98 -1.34 13.96 -1 16 C-1.99 16 -2.98 16 -4 16 C-6.11161731 6.58997722 -6.11161731 6.58997722 -7 2 C-4.69 1.34 -2.38 0.68 0 0 Z " fill="#A00E1C" transform="translate(110,46)"/>
<path d="M0 0 C0.66 0 1.32 0 2 0 C2 0.66 2 1.32 2 2 C1.34 2 0.68 2 0 2 C0 2.66 0 3.32 0 4 C2.63904371 5.41377341 5.07120629 6.37240135 8 7 C8.33 8.65 8.66 10.3 9 12 C7.35 12 5.7 12 4 12 C4 11.01 4 10.02 4 9 C3.01 9 2.02 9 1 9 C-1 9 -3 9 -5 9 C-4.34 8.34 -3.68 7.68 -3 7 C-2.01 7 -1.02 7 0 7 C-0.66 5.68 -1.32 4.36 -2 3 C-1.34 2.01 -0.68 1.02 0 0 Z " fill="#BB172A" transform="translate(66,68)"/>
<path d="M0 0 C0.66 0 1.32 0 2 0 C2.32613281 0.67546875 2.65226562 1.3509375 2.98828125 2.046875 C3.42527344 2.93890625 3.86226563 3.8309375 4.3125 4.75 C4.74175781 5.63171875 5.17101562 6.5134375 5.61328125 7.421875 C6.90103146 9.81600215 8.30915754 11.87776958 10 14 C9.67 14.66 9.34 15.32 9 16 C8.34 14.68 7.68 13.36 7 12 C6.34 12 5.68 12 5 12 C4.67 11.34 4.34 10.68 4 10 C3.01 9.67 2.02 9.34 1 9 C0.34 8.01 -0.32 7.02 -1 6 C-1.99 6.495 -1.99 6.495 -3 7 C-1.125 2.25 -1.125 2.25 0 0 Z " fill="#C22634" transform="translate(72,40)"/>
<path d="M0 0 C0.33 0 0.66 0 1 0 C1.309375 1.093125 1.61875 2.18625 1.9375 3.3125 C2.58337897 5.55407994 3.2623117 7.7869351 4 10 C3.66015625 12.48046875 3.66015625 12.48046875 3.0625 15.1875 C2.86785156 16.08855469 2.67320313 16.98960938 2.47265625 17.91796875 C2.31667969 18.60503906 2.16070312 19.29210937 2 20 C-0.44876181 17.55123819 -0.57755717 16.40327542 -1 13 C-0.9173572 10.72598998 -0.76851511 8.45366618 -0.5625 6.1875 C-0.46066406 5.02605469 -0.35882812 3.86460938 -0.25390625 2.66796875 C-0.17011719 1.78753906 -0.08632813 0.90710937 0 0 Z " fill="#81222F" transform="translate(31,60)"/>
<path d="M0 0 C0.99 0 1.98 0 3 0 C1.6062718 4.43458973 -0.60582235 6.87378374 -4 10 C-4.66 9.34 -5.32 8.68 -6 8 C-6 6.68 -6 5.36 -6 4 C-5.38125 3.896875 -4.7625 3.79375 -4.125 3.6875 C-1.63473516 3.12474627 -1.63473516 3.12474627 0 0 Z " fill="#981827" transform="translate(108,91)"/>
<path d="M0 0 C0.96661363 3.12180401 0.98988909 5.52083795 0.5625 8.75 C0.40974609 9.94882813 0.40974609 9.94882813 0.25390625 11.171875 C0.12822266 12.07679687 0.12822266 12.07679687 0 13 C-2.37343313 10.88400274 -2.95472391 10.35466273 -3.375 7.0625 C-2.96940652 3.75015327 -2.23079726 2.41669703 0 0 Z " fill="#A71225" transform="translate(35,56)"/>
<path d="M0 0 C3.63 0.66 7.26 1.32 11 2 C11 2.33 11 2.66 11 3 C10.25234375 3.13277344 9.5046875 3.26554687 8.734375 3.40234375 C7.25710937 3.66724609 7.25710937 3.66724609 5.75 3.9375 C4.77546875 4.11152344 3.8009375 4.28554688 2.796875 4.46484375 C0.50278205 4.90379729 -1.74291971 5.40348592 -4 6 C-4 5.34 -4 4.68 -4 4 C-3.01 4 -2.02 4 -1 4 C-0.67 2.68 -0.34 1.36 0 0 Z " fill="#8C162B" transform="translate(61,33)"/>
<path d="M0 0 C0.66 0 1.32 0 2 0 C0.16508812 4.74018901 -1.91941459 9.36413251 -4 14 C-4.33 14 -4.66 14 -5 14 C-4.67 10.7 -4.34 7.4 -4 4 C-3.01 4 -2.02 4 -1 4 C-0.67 2.68 -0.34 1.36 0 0 Z " fill="#93202C" transform="translate(40,51)"/>
<path d="M0 0 C0.99 0.33 1.98 0.66 3 1 C0.11593757 4.40843742 -1.3708265 5.86591384 -5.8125 6.8125 C-7.3903125 6.9053125 -7.3903125 6.9053125 -9 7 C-9 6.34 -9 5.68 -9 5 C-9.66 5 -10.32 5 -11 5 C-10.67 4.01 -10.34 3.02 -10 2 C-9.34 2.66 -8.68 3.32 -8 4 C-5.54258463 4.50014953 -5.54258463 4.50014953 -3 4 C-1.15684329 2.0995533 -1.15684329 2.0995533 0 0 Z " fill="#9F1429" transform="translate(94,94)"/>
<path d="M0 0 C0.66 0 1.32 0 2 0 C0.97877763 5.40647135 -0.13164063 10.21940105 -3 15 C-3.99 15.495 -3.99 15.495 -5 16 C-4.47731534 13.23723823 -3.89130413 10.6739124 -3 8 C-2.34 8 -1.68 8 -1 8 C-0.67 5.36 -0.34 2.72 0 0 Z " fill="#952936" transform="translate(116,75)"/>
<path d="M0 0 C1.32 1.32 2.64 2.64 4 4 C3.67 4.66 3.34 5.32 3 6 C1.35 5.01 -0.3 4.02 -2 3 C-2 4.32 -2 5.64 -2 7 C-1.01 7 -0.02 7 1 7 C0.34 8.32 -0.32 9.64 -1 11 C-3.30019361 7.54970958 -3.43132515 6.05445642 -3 2 C-2.01 1.34 -1.02 0.68 0 0 Z " fill="#8C1E2C" transform="translate(65,79)"/>
<path d="M0 0 C0.66 0.33 1.32 0.66 2 1 C2 1.66 2 2.32 2 3 C0.54494642 3.52992692 -0.91418127 4.0486789 -2.375 4.5625 C-3.59316406 4.99755859 -3.59316406 4.99755859 -4.8359375 5.44140625 C-7 6 -7 6 -9 5 C-3.375 1.125 -3.375 1.125 0 0 Z " fill="#911D2E" transform="translate(58,28)"/>
<path d="M0 0 C1.32 0.33 2.64 0.66 4 1 C4 2.65 4 4.3 4 6 C1 6 1 6 -0.6875 4.5 C-1.120625 4.005 -1.55375 3.51 -2 3 C-1.34 2.01 -0.68 1.02 0 0 Z " fill="#AC1E30" transform="translate(54,92)"/>
<path d="M0 0 C3.04398329 2.84759727 4.88998401 4.69846555 5.09765625 9.04296875 C5.06510417 11.02864583 5.03255208 13.01432292 5 15 C4.67 15 4.34 15 4 15 C4 12.69 4 10.38 4 8 C3.34 8 2.68 8 2 8 C1.34 5.36 0.68 2.72 0 0 Z " fill="#B63349" transform="translate(82,56)"/>
<path d="M0 0 C5.28137429 0.51525603 8.57221156 2.25477117 13 5 C13 5.33 13 5.66 13 6 C11.35 6 9.7 6 8 6 C8 5.34 8 4.68 8 4 C7.4225 3.896875 6.845 3.79375 6.25 3.6875 C3.67950842 2.90207202 2.06342716 1.69495803 0 0 Z " fill="#801D34" transform="translate(86,27)"/>
<path d="M0 0 C1.74627478 2.61941217 2.38722388 4.03824877 3 7 C1.02 7 -0.96 7 -3 7 C-3 3 -3 3 -1.5 1.25 C-1.005 0.8375 -0.51 0.425 0 0 Z " fill="#DB1328" transform="translate(71,44)"/>
<path d="M0 0 C0.33 0 0.66 0 1 0 C1.83796731 4.65537393 2.0161692 8.37078475 1 13 C0.34 13 -0.32 13 -1 13 C-0.67 8.71 -0.34 4.42 0 0 Z " fill="#962337" transform="translate(31,60)"/>
<path d="M0 0 C3.32637022 2.69277589 4.58473125 6.03724749 6 10 C5.67 10.99 5.34 11.98 5 13 C0.59225513 4.738041 0.59225513 4.738041 0 0 Z " fill="#81262E" transform="translate(111,46)"/>
<path d="M0 0 C1.32 0.66 2.64 1.32 4 2 C2.75 3.5625 2.75 3.5625 1 5 C-1.1875 4.6875 -1.1875 4.6875 -3 4 C-2.01 2.68 -1.02 1.36 0 0 Z " fill="#AC0F18" transform="translate(42,44)"/>
<path d="M0 0 C2.31 0 4.62 0 7 0 C7 0.66 7 1.32 7 2 C6.01 2.495 6.01 2.495 5 3 C4.67 3.66 4.34 4.32 4 5 C2.64567325 3.68799596 1.31266518 2.35368596 0 1 C0 0.67 0 0.34 0 0 Z " fill="#8F1122" transform="translate(90,38)"/>
<path d="M0 0 C0.99 0 1.98 0 3 0 C3 0.66 3 1.32 3 2 C-3.625 5.125 -3.625 5.125 -7 4 C-6.030625 3.525625 -5.06125 3.05125 -4.0625 2.5625 C-1.19522563 1.29806053 -1.19522563 1.29806053 0 0 Z " fill="#8C1E2E" transform="translate(91,106)"/>
<path d="M0 0 C0.99 0.33 1.98 0.66 3 1 C3.99 0.67 4.98 0.34 6 0 C6 0.66 6 1.32 6 2 C6.66 2 7.32 2 8 2 C8 2.66 8 3.32 8 4 C5.69 3.67 3.38 3.34 1 3 C0.67 2.01 0.34 1.02 0 0 Z " fill="#8B1B2A" transform="translate(45,86)"/>
<path d="M0 0 C0.99 0 1.98 0 3 0 C3.33 1.98 3.66 3.96 4 6 C3.01 6 2.02 6 1 6 C0.67 4.02 0.34 2.04 0 0 Z " fill="#921B23" transform="translate(105,56)"/>
</svg>
